<?xml version="1.0" encoding="iso-8859-1"?>
<!-- Generator: Adobe Illustrator 18.0.0, SVG Export Plug-In . SVG Version: 6.00 Build 0)  -->
<!DOCTYPE svg PUBLIC "-//W3C//DTD SVG 1.1//EN" "http://www.w3.org/Graphics/SVG/1.1/DTD/svg11.dtd">
<svg version="1.1" id="Capa_1" xmlns="http://www.w3.org/2000/svg" xmlns:xlink="http://www.w3.org/1999/xlink" x="0px" y="0px"
	 viewBox="0 0 449.9 449.9" style="enable-background:new 0 0 449.9 449.9;" xml:space="preserve">
<g>
	<path d="M446.02,84.96c2.38,12.19,2.65,24.79,3.88,37.2c-1.15,26.76-4.87,52.89-12.53,78.44c-10.79,36.02-23.45,71.38-40.76,104.82
		c-13.06,25.22-27.55,49.94-47.61,70.18c-15.47,15.6-33.31,28.89-50.41,42.82c-6.97,5.69-15.45,7.04-24.03,3.97
		c-12.09-4.34-24.17-8.78-35.98-13.82c-65.2-27.84-125.44-63.89-177.31-112.43C22.66,260.02-0.01,215.36,0,161.33
		c0-12.74,1.64-25.89,5.06-38.15c11.8-42.29,42.22-65.8,83.26-75.15c44.35-10.11,84.51,1.69,120.45,29.06
		c4.87,3.71,10.62,6.27,16.01,9.27c4.72,2.63,8.14,0.7,11.6-2.89c18.92-19.65,41.35-34.16,66.35-44.88
		c26.33-11.29,53.71-15.12,82.02-11.18C414.95,31.63,440.2,55.13,446.02,84.96z M432.2,144.78c2.63-18.92,2.67-38.24-1.28-57.23
		c-4.67-22.46-24.2-42.9-45.41-46.34c-22.49-3.66-44.86-1.82-66.38,5.67c-27.53,9.58-51.78,24.71-72.3,45.59
		c-2.57,2.62-5.18,5.61-8.39,7.05c-3.06,1.37-7.24,2.02-10.38,1.11c-8.45-2.48-16.7-5.74-24.84-9.13
		c-3.66-1.54-7.62-3.49-10.17-6.38c-8.42-9.54-19.32-15.45-30.39-20.66c-15.28-7.21-31.95-7.86-48.67-7.74
		c-24.15,0.17-45.54,7.99-64.46,22.61c-10.33,7.98-19.35,17.3-23.42,30.55c6.45-6.21,12.9-12.42,19.35-18.63
		c-6.54,9.88-14.41,18.41-22.22,26.98c-6.3,6.92-8.73,16.49-6.89,26.62c11.27-13.67,22.54-27.34,33.81-41.02
		c0.54,0.41,1.07,0.82,1.61,1.23c-2.2,3.22-4.27,6.53-6.61,9.63c-8.22,10.89-16.13,22.03-24.91,32.45
		c-8.04,9.55-9.09,19.59-4.62,31.81c9.56-15.25,18.67-30.03,31.74-41.8c-1.07,3.47-2.85,6.48-4.75,9.42
		c-7.79,12.07-15.33,24.32-23.57,36.08c-3.15,4.49-3.11,8.48-2.02,13.3c5.69,25.22,15.93,48.22,32.7,68.08
		c1.51,1.78,3.42,3.22,5.08,4.76c12.05-18.9,23.63-37.05,35.22-55.2c0.79,0.47,1.59,0.94,2.39,1.42
		c-9.46,20.88-23.71,39.24-34.08,60.56c4.55,4.3,8.75,8.28,13.14,12.44c10.08-17.21,19.96-34.09,29.85-50.97
		c0.76,0.42,1.51,0.84,2.27,1.26c-7.04,18.84-19.49,35.08-27.58,54.32c4.77,4.01,9.45,7.93,14.21,11.93
		c10.36-18.19,20.29-35.61,30.22-53.04c0.84,0.46,1.69,0.91,2.53,1.37c-9.54,18.34-19.08,36.69-28.82,55.42
		c4.89,3.72,8.83,6.72,13.24,10.07c8.97-18.05,18.65-34.28,29.43-49.81c0.75,0.45,1.51,0.89,2.26,1.33
		c-9.26,16.95-18.52,33.9-28.07,51.38c6.4,4.4,11.77,8.09,16.97,11.66c8.31-14.62,16.2-28.52,24.09-42.42
		c0.87,0.44,1.73,0.88,2.59,1.33c-7.07,14.66-14.15,29.33-21.48,44.52c5.88,3.71,10.71,6.76,15.76,9.94
		c7.96-14.3,15.5-27.84,23.05-41.39c0.76,0.41,1.53,0.81,2.29,1.22c-6.83,14.06-13.65,28.12-20.89,43.02
		c11.32,6.57,22.06,12.8,33.03,19.18c4.54-14.12,11.89-26,19.3-37.84c0.8,0.4,1.6,0.79,2.4,1.19c-6.2,12.6-12.39,25.2-18.9,38.44
		c5.47,2.77,10.54,5.32,15.17,7.66c8.09-14.55,15.46-27.82,22.84-41.09c0.78,0.4,1.56,0.8,2.34,1.19
		c-6.68,14-13.36,27.99-20.33,42.62c5.21,2.07,9.11,3.62,13.24,5.26c5.77-10.53,11-20.1,16.24-29.67c0.72,0.34,1.44,0.67,2.16,1.01
		c-4.55,10.17-9.1,20.33-13.95,31.15c2.82,0.91,5.02,1.62,7.13,2.3c5.62-10.48,10.88-20.27,16.13-30.06
		c0.75,0.37,1.51,0.74,2.26,1.11c-4.53,10.22-9.07,20.45-14.06,31.71c6.32,2.52,11.97,4.78,18.08,7.22
		c3.52-6.67,6.67-12.66,9.83-18.65c0.49,0.21,0.97,0.42,1.45,0.63c-2.56,6.22-5.11,12.45-8.29,20.18c6.85,2.18,12.9,4.79,19.2,5.82
		c3.59,0.59,8.39-0.33,11.29-2.44c23.61-17.13,46.49-35.14,63.33-59.51C395.49,285.51,422,218.24,432.2,144.78z"/>
	<path style="fill:#C1272D;" d="M430.92,87.55c3.95,18.99,3.91,38.31,1.28,57.23c-10.2,73.46-36.71,140.73-78.91,201.78
		c-16.84,24.37-39.72,42.38-63.33,59.51c-2.9,2.11-7.7,3.03-11.29,2.44c-6.3-1.03-12.35-3.64-19.2-5.82
		c3.18-7.73,5.73-13.96,8.29-20.18c-0.48-0.21-0.96-0.42-1.45-0.63c-3.16,5.99-6.31,11.98-9.83,18.65
		c-6.11-2.44-11.76-4.7-18.08-7.22c4.99-11.26,9.53-21.49,14.06-31.71c-0.75-0.37-1.51-0.74-2.26-1.11
		c-5.25,9.79-10.51,19.58-16.13,30.06c-2.11-0.68-4.31-1.39-7.13-2.3c4.85-10.82,9.4-20.98,13.95-31.15
		c-0.72-0.34-1.44-0.67-2.16-1.01c-5.24,9.57-10.47,19.14-16.24,29.67c-4.13-1.64-8.03-3.19-13.24-5.26
		c6.97-14.63,13.65-28.62,20.33-42.62c-0.78-0.39-1.56-0.79-2.34-1.19c-7.38,13.27-14.75,26.54-22.84,41.09
		c-4.63-2.34-9.7-4.89-15.17-7.66c6.51-13.24,12.7-25.84,18.9-38.44c-0.8-0.4-1.6-0.79-2.4-1.19c-7.41,11.84-14.76,23.72-19.3,37.84
		c-10.97-6.38-21.71-12.61-33.03-19.18c7.24-14.9,14.06-28.96,20.89-43.02c-0.76-0.41-1.53-0.81-2.29-1.22
		c-7.55,13.55-15.09,27.09-23.05,41.39c-5.05-3.18-9.88-6.23-15.76-9.94c7.33-15.19,14.41-29.86,21.48-44.52
		c-0.86-0.45-1.72-0.89-2.59-1.33c-7.89,13.9-15.78,27.8-24.09,42.42c-5.2-3.57-10.57-7.26-16.97-11.66
		c9.55-17.48,18.81-34.43,28.07-51.38c-0.75-0.44-1.51-0.88-2.26-1.33c-10.78,15.53-20.46,31.76-29.43,49.81
		c-4.41-3.35-8.35-6.35-13.24-10.07c9.74-18.73,19.28-37.08,28.82-55.42c-0.84-0.46-1.69-0.91-2.53-1.37
		c-9.93,17.43-19.86,34.85-30.22,53.04c-4.76-4-9.44-7.92-14.21-11.93c8.09-19.24,20.54-35.48,27.58-54.32
		c-0.76-0.42-1.51-0.84-2.27-1.26c-9.89,16.88-19.77,33.76-29.85,50.97c-4.39-4.16-8.59-8.14-13.14-12.44
		c10.37-21.32,24.62-39.68,34.08-60.56c-0.8-0.48-1.6-0.95-2.39-1.42c-11.59,18.15-23.17,36.3-35.22,55.2
		c-1.66-1.54-3.57-2.98-5.08-4.76c-16.77-19.86-27.01-42.86-32.7-68.08c-1.09-4.82-1.13-8.81,2.02-13.3
		c8.24-11.76,15.78-24.01,23.57-36.08c1.9-2.94,3.68-5.95,4.75-9.42c-13.07,11.77-22.18,26.55-31.74,41.8
		c-4.47-12.22-3.42-22.26,4.62-31.81c8.78-10.42,16.69-21.56,24.91-32.45c2.34-3.1,4.41-6.41,6.61-9.63
		c-0.54-0.41-1.07-0.82-1.61-1.23c-11.27,13.68-22.54,27.35-33.81,41.02c-1.84-10.13,0.59-19.7,6.89-26.62
		c7.81-8.57,15.68-17.1,22.22-26.98c-6.45,6.21-12.9,12.42-19.35,18.63c4.07-13.25,13.09-22.57,23.42-30.55
		c18.92-14.62,40.31-22.44,64.46-22.61c16.72-0.12,33.39,0.53,48.67,7.74c11.07,5.21,21.97,11.12,30.39,20.66
		c2.55,2.89,6.51,4.84,10.17,6.38c8.14,3.39,16.39,6.65,24.84,9.13c3.14,0.91,7.32,0.26,10.38-1.11c3.21-1.44,5.82-4.43,8.39-7.05
		c20.52-20.88,44.77-36.01,72.3-45.59c21.52-7.49,43.89-9.33,66.38-5.67C406.72,44.65,426.25,65.09,430.92,87.55z M363.13,244.21
		c2.26-3.34,9.94-3.97,10.31-12.41c-4.79,1.38-8.75,2.52-13.84,3.99c-0.89-6.17-1.66-11.47-2.32-16c4.9-5.28,11.85-7.22,12.79-16.27
		c-5.77,1.86-10.67,3.43-15.97,5.14c-1.77-6.19-3.36-11.72-4.69-16.37c4.51-6.69,12.89-9.3,12.05-19.03
		c-5.18,3.07-9.47,5.6-14.21,8.41c-1.04-3.03-1.99-5.4-2.65-7.84c-0.66-2.42-1.02-4.92-1.39-6.74c2.63-3.21,4.78-5.84,8.42-10.28
		c-5.44,0.58-8.4,0.9-11.44,1.23c-1.58-4.62-2.77-8.47-4.22-12.23c-3.07-7.96-3.92-8.21-12.17-6.63c-3.81,0.73-7.77,0.63-10.59,0.84
		c-4.45-5.35-2.54-12.61-9.66-16.52c-0.43,6.3-0.78,11.28-1.18,16.96c-3.13,0.65-6.14,1.28-8.39,1.75
		c-5.68-5.89-1.56-15.53-10.78-19.71c0,7.83,0,14.63,0,21.62c-4.8,0.9-9.01,1.68-12.7,2.37c-4.36-4.03-3.96-11.09-11.59-12.87
		c0.96,5.43,1.75,9.91,2.62,14.9c-7.19,1.74-13.83,3.33-19.73,4.76c-4.84-4.46-5.04-11.47-12.5-13.97
		c1.28,6.55,2.3,11.75,3.36,17.12c-1.93,0.87-3.27,1.4-4.55,2.06c-10.82,5.58-12.75,9.18-11.25,21.1
		c0.64,5.06,1.34,10.11,1.97,14.89c-3.28,1.97-5.88,3.54-10.32,6.22c5.45,1.06,8.82,1.72,12.42,2.42
		c1.91,6.88,3.74,13.48,5.41,19.48c-3.74,2.54-6.48,4.41-11.3,7.69c6.59,0.71,10.41,1.12,14.49,1.56
		c1.93,5.35,3.78,10.48,5.55,15.38c-3.28,3.27-6.11,6.08-8.93,8.9c0.45,0.57,0.89,1.14,1.34,1.71c3.47-0.62,6.93-1.24,11.16-2
		c2.14,5.47,4.22,10.79,6.18,15.78c-3.92,3.39-7.05,6.09-10.17,8.79c0.37,0.63,0.75,1.25,1.12,1.88c3.82-0.68,7.63-1.35,11.93-2.12
		c1.07,1.85,2.38,3.61,3.19,5.57c4.41,10.64,12.47,14.85,23.69,14.08c4.68-0.31,9.41-0.05,13.72-0.05
		c2.61,5.07,1.97,11.33,9.22,12.92c0-5.06,0-9.67,0-15.14c5.94-1.54,11.77-3.04,17.1-4.41c3.9,5.93,3.07,14.53,13.66,13.99
		c-1.18-5.99-2.22-11.23-3.37-17.03c2.8-1.03,5.32-1.96,7.46-2.74c4.47,4.71,4.33,13.22,13.85,11.89
		c-1.52-5.44-2.85-10.21-3.7-13.25c7.12-6.28,15.18-10.5,18.41-17.08C364.17,262.34,362.55,253.39,363.13,244.21z M172.4,354.17
		c9.7-10.98,18.04-28.8,18.48-37.71C183.27,329.03,176.07,340.73,172.4,354.17z M36.2,231.21c12.01-21.15,24.02-42.3,36.02-63.45
		c-0.94-0.56-1.88-1.13-2.82-1.69c-10.83,18.19-21.78,36.3-32.36,54.63c-1.69,2.92-1.72,6.79-2.51,10.22
		C35.08,231.02,35.64,231.12,36.2,231.21z M61.15,154.11c-0.76-0.49-1.51-0.99-2.27-1.48c-6.12,8.85-12.44,17.57-18.32,26.58
		c-14.23,21.79-14.15,21.84-13.4,30C38.79,190.36,49.97,172.23,61.15,154.11z M52.09,246.76c9.23-15.83,18.17-31.17,27.12-46.51
		C61.41,217.84,50.7,237.47,52.09,246.76z"/>
	<path d="M373.44,231.8c-0.37,8.44-8.05,9.07-10.31,12.41c-0.58,9.18,1.04,18.13-2.19,24.71c-3.23,6.58-11.29,10.8-18.41,17.08
		c0.85,3.04,2.18,7.81,3.7,13.25c-9.52,1.33-9.38-7.18-13.85-11.89c-2.14,0.78-4.66,1.71-7.46,2.74c1.15,5.8,2.19,11.04,3.37,17.03
		c-10.59,0.54-9.76-8.06-13.66-13.99c-5.33,1.37-11.16,2.87-17.1,4.41c0,5.47,0,10.08,0,15.14c-7.25-1.59-6.61-7.85-9.22-12.92
		c-4.31,0-9.04-0.26-13.72,0.05c-11.22,0.77-19.28-3.44-23.69-14.08c-0.81-1.96-2.12-3.72-3.19-5.57c-4.3,0.77-8.11,1.44-11.93,2.12
		c-0.37-0.63-0.75-1.25-1.12-1.88c3.12-2.7,6.25-5.4,10.17-8.79c-1.96-4.99-4.04-10.31-6.18-15.78c-4.23,0.76-7.69,1.38-11.16,2
		c-0.45-0.57-0.89-1.14-1.34-1.71c2.82-2.82,5.65-5.63,8.93-8.9c-1.77-4.9-3.62-10.03-5.55-15.38c-4.08-0.44-7.9-0.85-14.49-1.56
		c4.82-3.28,7.56-5.15,11.3-7.69c-1.67-6-3.5-12.6-5.41-19.48c-3.6-0.7-6.97-1.36-12.42-2.42c4.44-2.68,7.04-4.25,10.32-6.22
		c-0.63-4.78-1.33-9.83-1.97-14.89c-1.5-11.92,0.43-15.52,11.25-21.1c1.28-0.66,2.62-1.19,4.55-2.06
		c-1.06-5.37-2.08-10.57-3.36-17.12c7.46,2.5,7.66,9.51,12.5,13.97c5.9-1.43,12.54-3.02,19.73-4.76c-0.87-4.99-1.66-9.47-2.62-14.9
		c7.63,1.78,7.23,8.84,11.59,12.87c3.69-0.69,7.9-1.47,12.7-2.37c0-6.99,0-13.79,0-21.62c9.22,4.18,5.1,13.82,10.78,19.71
		c2.25-0.47,5.26-1.1,8.39-1.75c0.4-5.68,0.75-10.66,1.18-16.96c7.12,3.91,5.21,11.17,9.66,16.52c2.82-0.21,6.78-0.11,10.59-0.84
		c8.25-1.58,9.1-1.33,12.17,6.63c1.45,3.76,2.64,7.61,4.22,12.23c3.04-0.33,6-0.65,11.44-1.23c-3.64,4.44-5.79,7.07-8.42,10.28
		c0.37,1.82,0.73,4.32,1.39,6.74c0.66,2.44,1.61,4.81,2.65,7.84c4.74-2.81,9.03-5.34,14.21-8.41c0.84,9.73-7.54,12.34-12.05,19.03
		c1.33,4.65,2.92,10.18,4.69,16.37c5.3-1.71,10.2-3.28,15.97-5.14c-0.94,9.05-7.89,10.99-12.79,16.27c0.66,4.53,1.43,9.83,2.32,16
		C364.69,234.32,368.65,233.18,373.44,231.8z M339.61,273.62c13.78-6.77,14.78-9.11,10.52-23.62c-2.96-0.52-6.05-1.06-10.75-1.89
		c3.74-3.29,6.34-5.57,9.63-8.47c-0.74-4-1.56-8.46-2.35-12.72c-3.85,0.25-6.52,0.42-11.23,0.73c3.78-4.91,6.34-8.24,9.23-11.99
		c-1.6-5.26-3.26-10.72-4.96-16.31c-5.1,2.11-9.23,3.81-14.55,6c0.93-9.27,8.52-10.81,12-16.45c-1.34-5.11-2.8-10.67-4.15-15.83
		c-5.88-0.62-9.88,5.27-16.87,1.17c5.14-3.95,9.32-7.16,13.88-10.66c-1.44-5.34-2.84-10.57-4.27-15.86c-4.35,0-8.08,0-11.59,0
		c-1.17,5.3,4.09,10.72-3.09,15.36c-2.82-5.03-5.41-9.65-8.13-14.51c-2.05,0.29-4.21,0.59-7.02,0.99c0.64,4.22,1.26,8.22,1.89,12.33
		c-8.56,0.96-8.87-6.53-13.32-10.57c-3.64,0.85-7.7,1.8-11.37,2.66c0.45,4.61,0.8,8.08,1.14,11.55c-0.75,0.38-1.51,0.77-2.27,1.15
		c-2.83-3.4-5.67-6.81-9.22-11.07c-5.65,1.49-11.88,3.14-17.93,4.74c0.44,4.4,0.77,7.68,1.1,10.96c-0.72,0.29-1.43,0.58-2.15,0.87
		c-3.02-2.82-6.04-5.63-8.97-8.36c-12.07,5.91-13.07,10.89-6.24,29.57c5.08,2.71,11.53-2.36,17.77,3.64
		c-6.14,2.11-11.09,3.81-16.77,5.76c2.09,6.01,3.97,11.4,5.65,16.19c5.71,1.82,11.18-3.76,15.64,2.51
		c-4.14,2.44-8.07,4.76-12.28,7.25c1.93,4.94,3.65,9.3,5.63,14.36c5.47,0,10.64,0,15.8,0c0.2,0.72,0.41,1.45,0.61,2.18
		c-4.25,2.3-8.5,4.59-13.07,7.07c2.29,5.31,4.43,10.28,6.48,15.04c5.25-1,9.57-1.82,13.9-2.64c0.25,0.73,0.5,1.45,0.75,2.17
		c-3.59,2.89-7.17,5.77-10.63,8.54c3.44,15.62,7.09,17.3,28.2,14.22c0.91-2.92,1.83-5.83,3.14-10.01c2.48,3.49,4.11,5.79,6.07,8.54
		c5.99-1.77,11.81-3.5,17.82-5.28c0-4.45,0-7.79,0-11.13c0.65-0.29,1.3-0.58,1.95-0.87c2.72,3,5.43,6,8.04,8.88
		c7.14-2.99,7.14-2.99,8.74-11.3C334.82,270.4,337.37,272.11,339.61,273.62z"/>
	<path style="fill:#FF96BD;" d="M350.13,250c4.26,14.51,3.26,16.85-10.52,23.62c-2.24-1.51-4.79-3.22-7.6-5.11
		c-1.6,8.31-1.6,8.31-8.74,11.3c-2.61-2.88-5.32-5.88-8.04-8.88c-0.65,0.29-1.3,0.58-1.95,0.87c0,3.34,0,6.68,0,11.13
		c-6.01,1.78-11.83,3.51-17.82,5.28c-1.96-2.75-3.59-5.05-6.07-8.54c-1.31,4.18-2.23,7.09-3.14,10.01
		c-21.11,3.08-24.76,1.4-28.2-14.22c3.46-2.77,7.04-5.65,10.63-8.54c-0.25-0.72-0.5-1.44-0.75-2.17c-4.33,0.82-8.65,1.64-13.9,2.64
		c-2.05-4.76-4.19-9.73-6.48-15.04c4.57-2.48,8.82-4.77,13.07-7.07c-0.2-0.73-0.41-1.46-0.61-2.18c-5.16,0-10.33,0-15.8,0
		c-1.98-5.06-3.7-9.42-5.63-14.36c4.21-2.49,8.14-4.81,12.28-7.25c-4.46-6.27-9.93-0.69-15.64-2.51
		c-1.68-4.79-3.56-10.18-5.65-16.19c5.68-1.95,10.63-3.65,16.77-5.76c-6.24-6-12.69-0.93-17.77-3.64
		c-6.83-18.68-5.83-23.66,6.24-29.57c2.93,2.73,5.95,5.54,8.97,8.36c0.72-0.29,1.43-0.58,2.15-0.87c-0.33-3.28-0.66-6.56-1.1-10.96
		c6.05-1.6,12.28-3.25,17.93-4.74c3.55,4.26,6.39,7.67,9.22,11.07c0.76-0.38,1.52-0.77,2.27-1.15c-0.34-3.47-0.69-6.94-1.14-11.55
		c3.67-0.86,7.73-1.81,11.37-2.66c4.45,4.04,4.76,11.53,13.32,10.57c-0.63-4.11-1.25-8.11-1.89-12.33c2.81-0.4,4.97-0.7,7.02-0.99
		c2.72,4.86,5.31,9.48,8.13,14.51c7.18-4.64,1.92-10.06,3.09-15.36c3.51,0,7.24,0,11.59,0c1.43,5.29,2.83,10.52,4.27,15.86
		c-4.56,3.5-8.74,6.71-13.88,10.66c6.99,4.1,10.99-1.79,16.87-1.17c1.35,5.16,2.81,10.72,4.15,15.83c-3.48,5.64-11.07,7.18-12,16.45
		c5.32-2.19,9.45-3.89,14.55-6c1.7,5.59,3.36,11.05,4.96,16.31c-2.89,3.75-5.45,7.08-9.23,11.99c4.71-0.31,7.38-0.48,11.23-0.73
		c0.79,4.26,1.61,8.72,2.35,12.72c-3.29,2.9-5.89,5.18-9.63,8.47C344.08,248.94,347.17,249.48,350.13,250z"/>
	<path d="M190.88,316.46c-0.44,8.91-8.78,26.73-18.48,37.71C176.07,340.73,183.27,329.03,190.88,316.46z"/>
	<path d="M72.22,167.76c-12,21.15-24.01,42.3-36.02,63.45c-0.56-0.09-1.12-0.19-1.67-0.29c0.79-3.43,0.82-7.3,2.51-10.22
		c10.58-18.33,21.53-36.44,32.36-54.63C70.34,166.63,71.28,167.2,72.22,167.76z"/>
	<path d="M58.88,152.63c0.76,0.49,1.51,0.99,2.27,1.48c-11.18,18.12-22.36,36.25-33.99,55.1c-0.75-8.16-0.83-8.21,13.4-30
		C46.44,170.2,52.76,161.48,58.88,152.63z"/>
	<path d="M79.21,200.25c-8.95,15.34-17.89,30.68-27.12,46.51C50.7,237.47,61.41,217.84,79.21,200.25z"/>
</g>
<g>
</g>
<g>
</g>
<g>
</g>
<g>
</g>
<g>
</g>
<g>
</g>
<g>
</g>
<g>
</g>
<g>
</g>
<g>
</g>
<g>
</g>
<g>
</g>
<g>
</g>
<g>
</g>
<g>
</g>
</svg>
